<?xml version="1.0" encoding="utf-8"?>
<!-- Generator: Adobe Illustrator 24.1.2, SVG Export Plug-In . SVG Version: 6.00 Build 0)  -->
<svg version="1.1" id="Layer_2_1_" xmlns="http://www.w3.org/2000/svg" xmlns:xlink="http://www.w3.org/1999/xlink" x="0px" y="0px"
	 viewBox="0 0 100 100" style="enable-background:new 0 0 100 100;" xml:space="preserve">
<g>
	<path d="M84.7,87.3h-63V4.8h26.7c4.4,0,7.8,1.5,10,4.5c4.3,5.7,3,15.2,2,19.7c4.5-1.1,13.8-2.6,19.6,1.6c3.1,2.3,4.7,5.8,4.7,10.5
		V87.3z M24.7,84.3h57V41c0-3.8-1.1-6.4-3.4-8.1c-6.3-4.6-19.3-0.5-19.4-0.5l-2.7,0.9l0.8-2.7c0-0.1,3.8-13.3-0.9-19.6
		c-1.7-2.2-4.1-3.3-7.6-3.3H24.7V84.3z"/>
	<polygon points="74.8,91.3 17.7,91.3 17.7,14.3 20.7,14.3 20.7,88.3 74.8,88.3 	"/>
	<polygon points="70.3,95.3 13.2,95.3 13.2,18.7 16.2,18.7 16.2,92.3 70.3,92.3 	"/>
	<path d="M38.2,42.7c1.2,0.5,2.1,1.3,2.8,2.3c0.7,1,1,2.2,1,3.6c0,1.4-0.3,2.6-1,3.6c-0.7,1-1.6,1.8-2.8,2.3
		c-1.2,0.5-2.6,0.8-4.3,0.8h-3.7v5.1h-4.3V41.8h8C35.6,41.8,37,42.1,38.2,42.7z M36.7,50.9c0.7-0.6,1-1.3,1-2.4c0-1-0.3-1.8-1-2.4
		c-0.7-0.6-1.7-0.8-2.9-0.8h-3.5v6.4h3.5C35,51.8,36,51.5,36.7,50.9z"/>
	<path d="M45.1,41.8h8.4c2,0,3.8,0.4,5.3,1.2c1.5,0.8,2.7,1.9,3.6,3.3c0.9,1.4,1.3,3,1.3,4.9c0,1.9-0.4,3.5-1.3,4.9
		c-0.9,1.4-2.1,2.5-3.6,3.3c-1.6,0.8-3.3,1.2-5.3,1.2h-8.4V41.8z M53.3,56.9c1.9,0,3.3-0.5,4.4-1.6c1.1-1,1.7-2.4,1.7-4.2
		c0-1.8-0.6-3.2-1.7-4.2c-1.1-1-2.6-1.6-4.4-1.6h-3.9v11.5H53.3z"/>
	<path d="M71.3,45.3v4.9h8.6v3.4h-8.6v6.8H67V41.8h14v3.4H71.3z"/>
</g>
</svg>
