<?xml version="1.0" encoding="utf-8"?>
<!-- Generator: Adobe Illustrator 24.1.2, SVG Export Plug-In . SVG Version: 6.00 Build 0)  -->
<svg version="1.1" id="Layer_2_1_" xmlns="http://www.w3.org/2000/svg" xmlns:xlink="http://www.w3.org/1999/xlink" x="0px" y="0px"
	 viewBox="0 0 100 100" style="enable-background:new 0 0 100 100;" xml:space="preserve">
<path d="M81.5,90.3h-63V7.8h26.7c4.4,0,7.8,1.5,10,4.5c4.3,5.7,3,15.2,2,19.7c4.5-1.1,13.8-2.6,19.6,1.6c3.1,2.3,4.7,5.8,4.7,10.5
	V90.3z M21.5,87.3h57V44c0-3.8-1.1-6.4-3.4-8.1c-6.3-4.6-19.3-0.5-19.4-0.5L53,36.3l0.8-2.7c0-0.1,3.8-13.3-0.9-19.6
	c-1.7-2.2-4.1-3.3-7.6-3.3H21.5V87.3z"/>
<path d="M34.7,46.6c1.1,0.5,2,1.2,2.6,2.2c0.6,0.9,0.9,2.1,0.9,3.4c0,1.3-0.3,2.4-0.9,3.3c-0.6,1-1.5,1.7-2.6,2.2s-2.5,0.8-4,0.8
	h-3.5v4.8h-4V45.9h7.5C32.2,45.9,33.6,46.1,34.7,46.6z M33.2,54.4c0.6-0.5,0.9-1.3,0.9-2.2c0-1-0.3-1.7-0.9-2.2
	c-0.6-0.5-1.5-0.8-2.8-0.8h-3.3v6h3.3C31.7,55.2,32.6,54.9,33.2,54.4z"/>
<path d="M57.1,45.9v17.4h-3.3l-8.7-10.6v10.6h-4V45.9h3.3l8.6,10.6V45.9H57.1z"/>
<path d="M72.9,54.3h3.7v7.1c-0.9,0.7-2,1.3-3.3,1.6s-2.5,0.6-3.8,0.6c-1.8,0-3.4-0.4-4.9-1.2c-1.4-0.8-2.6-1.8-3.4-3.2
	s-1.2-2.9-1.2-4.6c0-1.7,0.4-3.3,1.2-4.6c0.8-1.4,2-2.4,3.4-3.2c1.5-0.8,3.1-1.2,4.9-1.2c1.5,0,2.9,0.3,4.1,0.8s2.3,1.3,3.1,2.2
	L74.4,51c-1.2-1.3-2.7-2-4.5-2c-1.1,0-2.1,0.2-3,0.7c-0.9,0.5-1.5,1.1-2,2c-0.5,0.8-0.7,1.8-0.7,2.9c0,1.1,0.2,2,0.7,2.9
	s1.1,1.5,2,2c0.9,0.5,1.8,0.7,2.9,0.7c1.2,0,2.2-0.2,3.1-0.7V54.3z"/>
</svg>
