<?xml version="1.0" encoding="utf-8"?>
<!-- Generator: Adobe Illustrator 24.1.2, SVG Export Plug-In . SVG Version: 6.00 Build 0)  -->
<svg version="1.1" id="Layer_2_1_" xmlns="http://www.w3.org/2000/svg" xmlns:xlink="http://www.w3.org/1999/xlink" x="0px" y="0px"
	 viewBox="0 0 100 100" style="enable-background:new 0 0 100 100;" xml:space="preserve">
<style type="text/css">
	.st0{fill-rule:evenodd;clip-rule:evenodd;}
	.st1{display:none;fill:#FFFFFF;}
	.st2{display:none;fill-rule:evenodd;clip-rule:evenodd;}
	.st3{fill:#FFFFFF;}
</style>
<polygon class="st0" points="38,66 6,66 6,90 94,90 94,66 62,66 62,62 98,62 98,94 2,94 2,62 38,62 "/>
<polygon class="st0" points="18.4,64.7 15.9,64.7 15.9,43.5 4,57.9 2,56.4 17.1,38.2 32.3,56.4 30.3,57.9 18.4,43.5 "/>
<polygon class="st0" points="84.1,64.5 81.6,64.5 81.6,34.3 69.7,48.7 67.7,47.2 82.9,29 98,47.2 96,48.7 84.1,34.3 "/>
<path class="st1" d="M30.3,85.3h-4.5V33.1L7.2,55.5l-3.6-2.7L28,23.6l24.4,29.2l-3.6,2.7L30.3,33.1V85.3z M26.3,84.8h3.5v-53
	l19.1,23.2l2.8-2.1L28,24.4L4.4,52.8l2.8,2.1l19.1-23.2V84.8z"/>
<polygon class="st2" points="40,81 36,81 36,25.4 17.2,48.2 14,45.8 38,17 62,45.8 58.8,48.2 40,25.4 "/>
<path class="st1" d="M40.3,81.3h-4.5V26.1L17.2,48.5l-3.6-2.7L38,16.6l24.4,29.2l-3.6,2.7l-0.2-0.2L40.3,26.1V81.3z M36.3,80.8h3.5
	v-56l19.1,23.2l2.8-2.1L38,17.4L14.4,45.8l2.8,2.1l19.1-23.2V80.8z"/>
<circle class="st0" cx="82" cy="78" r="4"/>
<g>
	<polygon class="st0" points="52,74 48,74 48,14.4 29.2,37.2 26,34.8 50,6 74,34.8 70.8,37.2 52,14.4 	"/>
	<path class="st3" d="M52.3,74.3h-4.5V15.1L29.2,37.5l-3.6-2.7L50,5.6l24.4,29.2l-3.6,2.7l-0.2-0.2L52.3,15.1V74.3z M48.3,73.8h3.5
		v-60l19.1,23.2l2.8-2.1L50,6.4L26.4,34.8l2.8,2.1l19.1-23.2V73.8z"/>
</g>
</svg>
