<?xml version="1.0" encoding="utf-8"?>
<!-- Generator: Adobe Illustrator 24.1.2, SVG Export Plug-In . SVG Version: 6.00 Build 0)  -->
<svg version="1.1" id="Layer_2_1_" xmlns="http://www.w3.org/2000/svg" xmlns:xlink="http://www.w3.org/1999/xlink" x="0px" y="0px"
	 viewBox="0 0 100 100" style="enable-background:new 0 0 100 100;" xml:space="preserve">
<path d="M81.5,90.3000031h-63v-82.5h26.7000008c4.4000015,0,7.7999992,1.5,10,4.5C59.5,18,58.2000008,27.5,57.2000008,32
	c4.5-1.1000004,13.7999992-2.6000004,19.6000023,1.5999985C79.9000015,35.8999977,81.5,39.3999977,81.5,44.0999985V90.3000031z
	 M21.5,87.3000031h57V44c0-3.7999992-1.0999985-6.4000015-3.4000015-8.0999985c-6.3000031-4.6000004-19.2999992-0.5-19.4000015-0.5
	L53,36.2999992l0.7999992-2.7000008c0-0.0999985,3.7999992-13.2999992-0.9000015-19.6000004
	c-1.7000008-2.1999998-4.0999985-3.3000002-7.5999985-3.3000002H21.5V87.3000031z"/>
<path d="M25.6113281,62.9130859c-1.059082-0.4716797-1.9262695-1.1435547-2.6025391-2.015625l2.4023438-2.8828125
	c1.0141602,1.3710938,2.1708984,2.0556641,3.4697266,2.0556641c1.7617188,0,2.6425781-1.0322266,2.6425781-3.0966797v-8.8876953
	h-6.565918v-3.4697266h10.862793V56.734375c0,2.2949219-0.5693359,4.0166016-1.7080078,5.1640625
	c-1.1391602,1.1474609-2.8115234,1.7216797-5.0180664,1.7216797C27.8310547,63.6201172,26.6699219,63.3837891,25.6113281,62.9130859
	z"/>
<path d="M52.4882813,45.4438477c1.21875,0.5517578,2.1572266,1.3344727,2.8154297,2.3486328s0.9882813,2.215332,0.9882813,3.6040039
	c0,1.3701172-0.3300781,2.5664063-0.9882813,3.5888672c-0.6582031,1.0234375-1.5966797,1.8066406-2.8154297,2.3486328
	c-1.21875,0.5429688-2.6552734,0.8144531-4.3100586,0.8144531h-3.7636719v5.1513672h-4.3237305V44.6162109h8.0874023
	C49.8330078,44.6162109,51.2695313,44.8925781,52.4882813,45.4438477z M50.9003906,53.7851563
	c0.6757813-0.5605469,1.0136719-1.3574219,1.0136719-2.3886719c0-1.0498047-0.3378906-1.855957-1.0136719-2.4160156
	c-0.6767578-0.5605469-1.6640625-0.8408203-2.9624023-0.8408203h-3.5234375V54.625h3.5234375
	C49.2363281,54.625,50.2236328,54.3447266,50.9003906,53.7851563z"/>
<path d="M72.2519531,53.6650391h3.9501953v7.5791016c-1.0136719,0.765625-2.1884766,1.3525391-3.5234375,1.7617188
	c-1.3339844,0.4091797-2.6777344,0.6142578-4.0302734,0.6142578c-1.9394531,0-3.6826172-0.4140625-5.2304688-1.2412109
	c-1.5488281-0.8271484-2.7626953-1.9746094-3.6435547-3.4433594c-0.8808594-1.4677734-1.3212891-3.1269531-1.3212891-4.9775391
	s0.4404297-3.5097656,1.3212891-4.9775391c0.8808594-1.4682617,2.1035156-2.6157227,3.6699219-3.4433594
	c1.5654297-0.8271484,3.3271484-1.2412109,5.2841797-1.2412109c1.6376953,0,3.1230469,0.2763672,4.4580078,0.8276367
	c1.3339844,0.5517578,2.4550781,1.3525391,3.3632813,2.4018555l-2.7763672,2.5625
	c-1.3339844-1.4052734-2.9453125-2.1083984-4.8310547-2.1083984c-1.1923828,0-2.2509766,0.2490234-3.1757813,0.7470703
	c-0.9257813,0.4985352-1.6464844,1.2011719-2.1621094,2.109375c-0.5166016,0.9072266-0.7744141,1.9482422-0.7744141,3.1220703
	c0,1.1572266,0.2578125,2.1884766,0.7744141,3.0957031c0.515625,0.9082031,1.2314453,1.6152344,2.1484375,2.1220703
	c0.9160156,0.5078125,1.9619141,0.7607422,3.1357422,0.7607422c1.2460938,0,2.3671875-0.2666016,3.3632813-0.8007813V53.6650391z"/>
</svg>
