<?xml version="1.0" encoding="utf-8"?>
<!-- Generator: Adobe Illustrator 24.1.2, SVG Export Plug-In . SVG Version: 6.00 Build 0)  -->
<svg version="1.1" id="Layer_2_1_" xmlns="http://www.w3.org/2000/svg" xmlns:xlink="http://www.w3.org/1999/xlink" x="0px" y="0px"
	 viewBox="0 0 100 100" style="enable-background:new 0 0 100 100;" xml:space="preserve">
<path d="M81.5,90.3h-63V7.8h26.7c4.4,0,7.8,1.5,10,4.5c4.3,5.7,3,15.2,2,19.7c4.5-1.1,13.8-2.6,19.6,1.6c3.1,2.3,4.7,5.8,4.7,10.5
	V90.3z M21.5,87.3h57V44c0-3.8-1.1-6.4-3.4-8.1c-6.3-4.6-19.3-0.5-19.4-0.5L53,36.3l0.8-2.7c0-0.1,3.8-13.3-0.9-19.6
	c-1.7-2.2-4.1-3.3-7.6-3.3H21.5V87.3z"/>
<path d="M35.1,45.7c1.2,0.5,2.1,1.3,2.8,2.3c0.7,1,1,2.2,1,3.6c0,1.4-0.3,2.6-1,3.6c-0.7,1-1.6,1.8-2.8,2.3
	c-1.2,0.5-2.6,0.8-4.3,0.8h-3.7v5.1h-4.3V44.8h8C32.4,44.8,33.9,45.1,35.1,45.7z M33.5,53.9c0.7-0.6,1-1.3,1-2.4c0-1-0.3-1.8-1-2.4
	c-0.7-0.6-1.7-0.8-2.9-0.8h-3.5v6.4h3.5C31.8,54.8,32.8,54.5,33.5,53.9z"/>
<path d="M41.9,44.8h8.4c2,0,3.8,0.4,5.3,1.2c1.5,0.8,2.7,1.9,3.6,3.3c0.9,1.4,1.3,3,1.3,4.9c0,1.9-0.4,3.5-1.3,4.9
	c-0.9,1.4-2.1,2.5-3.6,3.3c-1.6,0.8-3.3,1.2-5.3,1.2h-8.4V44.8z M50.1,59.9c1.9,0,3.3-0.5,4.4-1.6c1.1-1,1.7-2.4,1.7-4.2
	c0-1.8-0.6-3.2-1.7-4.2c-1.1-1-2.6-1.6-4.4-1.6h-3.9v11.5H50.1z"/>
<path d="M68.1,48.3v4.9h8.6v3.4h-8.6v6.8h-4.3V44.8h14v3.4H68.1z"/>
</svg>
